<?xml version="1.0" encoding="UTF-8" standalone="no"?>
<svg
   version="1.0"
   width="480.000000pt"
   height="520.000000pt"
   viewBox="0 0 480.000000 520.000000"
   preserveAspectRatio="xMidYMid meet"
   id="svg16"
   sodipodi:docname="developer_activity.svg"
   inkscape:version="1.2.2 (732a01da63, 2022-12-09)"
   xmlns:inkscape="http://www.inkscape.org/namespaces/inkscape"
   xmlns:sodipodi="http://sodipodi.sourceforge.net/DTD/sodipodi-0.dtd"
   xmlns="http://www.w3.org/2000/svg"
   xmlns:svg="http://www.w3.org/2000/svg">
  <defs
     id="defs20" />
  <sodipodi:namedview
     id="namedview18"
     pagecolor="#ffffff"
     bordercolor="#000000"
     borderopacity="0.25"
     inkscape:showpageshadow="2"
     inkscape:pageopacity="0.0"
     inkscape:pagecheckerboard="0"
     inkscape:deskcolor="#d1d1d1"
     inkscape:document-units="pt"
     showgrid="false"
     inkscape:zoom="1.1956731"
     inkscape:cx="174.79694"
     inkscape:cy="347.08484"
     inkscape:window-width="1920"
     inkscape:window-height="1009"
     inkscape:window-x="1432"
     inkscape:window-y="-8"
     inkscape:window-maximized="1"
     inkscape:current-layer="svg16" />
  <metadata
     id="metadata2">
Created by potrace 1.16, written by Peter Selinger 2001-2019
</metadata>
  <g
     transform="translate(0.000000,520.000000) scale(0.100000,-0.100000)"
     fill="#000000"
     stroke="none"
     id="g14"
     style="fill:#bf4011;stroke:#aa0000;fill-opacity:1">
    <path
       d="M2466 4999 c-233 -80 -421 -361 -496 -741 -6 -32 -16 -60 -21 -64 -6 -3 -150 4 -320 16 -332 24 -357 23 -413 -21 -15 -11 -36 -40 -48 -62 -23 -46 -21 -21 -58 -721 -13 -241 -25 -394 -31 -403 -6 -7 -17 -13 -24 -13 -7 0 -25 -13 -38 -30 -22 -25 -33 -30 -71 -30 -40 0 -47 3 -61 30 -8 16 -15 34 -15 40 0 21 -81 148 -131 205 -41 47 -49 63 -49 95 0 21 -4 41 -9 44 -14 9 -43 147 -37 177 3 17 -6 69 -24 132 -34 116 -32 131 26 267 34 82 38 151 8 180 -46 46 -153 34 -223 -26 -58 -50 -75 -103 -69 -213 l5 -90 -51 -12 c-112 -27 -182 -73 -215 -142 -17 -36 -20 -57 -16 -140 2 -67 8 -106 19 -122 9 -13 16 -43 16 -65 0 -56 24 -99 65 -116 19 -8 41 -27 50 -44 26 -51 57 -64 149 -62 l81 1 49 -102 c45 -94 58 -110 164 -216 l116 -115 95 -9 c53 -5 102 -11 108 -13 9 -2 13 -30 13 -94 0 -82 2 -93 23 -113 24 -22 24 -23 15 -167 -17 -279 -4 -317 215 -608 55 -73 110 -140 122 -148 15 -10 65 -17 154 -21 72 -3 134 -9 136 -13 2 -3 -15 -67 -39 -141 l-42 -134 -55 -28 c-86 -44 -137 -141 -94 -177 8 -7 15 -17 15 -22 0 -6 -31 -54 -69 -108 -38 -54 -74 -108 -80 -118 -8 -15 -23 -21 -62 -24 -28 -1 -54 -1 -59 2 -4 3 -19 28 -34 57 -34 69 -81 121 -124 138 -19 9 -66 15 -107 15 -63 0 -77 -4 -119 -31 -76 -50 -116 -119 -116 -197 0 -20 -7 -43 -16 -53 -9 -10 -20 -37 -25 -60 -29 -127 97 -259 286 -300 49 -10 70 -21 110 -59 42 -39 63 -50 125 -65 83 -21 222 -23 291 -5 63 17 88 69 63 133 -3 10 2 18 16 22 11 4 32 24 47 46 21 32 25 47 20 85 -2 26 -16 61 -30 81 l-26 37 80 83 c77 81 128 163 129 208 1 56 12 54 182 -33 90 -46 187 -97 217 -113 102 -55 183 -34 264 70 l47 61 88 -46 c48 -25 110 -58 137 -74 28 -16 68 -32 90 -35 39 -6 42 -10 79 -82 48 -93 77 -113 161 -113 33 1 105 9 160 20 55 10 102 17 104 15 1 -2 -9 -19 -23 -37 -52 -69 -71 -158 -46 -222 14 -38 81 -107 117 -123 19 -7 69 -13 118 -13 71 0 94 4 134 25 93 47 141 139 141 273 0 64 4 84 25 117 50 82 24 252 -51 331 -32 35 -65 42 -108 25 -11 -4 -41 -1 -69 7 -69 20 -110 9 -168 -45 -48 -45 -168 -103 -213 -103 -25 0 -66 38 -66 62 0 19 209 152 281 179 68 26 101 24 164 -12 107 -60 137 -15 64 97 -23 36 -55 82 -72 102 -34 43 -97 164 -97 187 0 13 12 15 78 10 90 -6 471 -25 509 -25 18 0 40 14 70 46 25 25 46 44 47 42 1 -1 7 -18 12 -37 5 -19 22 -43 37 -55 26 -19 42 -21 170 -21 231 0 239 8 244 250 3 122 7 163 18 175 21 24 18 73 -6 104 l-21 27 21 65 c15 45 21 90 21 149 0 67 4 91 21 119 43 73 21 134 -63 177 -21 11 -57 39 -81 63 -25 25 -63 50 -88 58 l-44 15 3 60 c5 79 -15 118 -71 144 -23 10 -57 19 -74 19 -33 0 -33 0 -33 53 0 28 7 230 17 448 l17 396 -30 59 c-34 68 -66 89 -165 106 -35 6 -65 12 -67 13 -3 3 -6 22 -17 99 -5 39 -15 56 -49 91 -50 50 -64 53 -275 69 l-155 11 -22 110 c-74 354 -231 585 -452 667 -32 12 -68 31 -82 44 -40 35 -125 82 -181 98 -74 22 -191 20 -263 -5z m239 -128 c16 -6 8 -13 -45 -42 -164 -86 -318 -307 -397 -567 l-28 -93 -55 3 -55 3 2 42 c1 24 14 82 28 130 102 335 278 533 475 532 30 0 64 -4 75 -8z m242 -204 c61 -91 106 -246 124 -424 7 -68 8 -118 3 -123 -10 -9 -648 30 -658 41 -16 16 93 266 154 354 29 43 109 123 150 152 38 27 121 53 160 50 30 -2 40 -9 67 -50z m273 -223 c41 -82 90 -250 90 -310 0 -33 -1 -34 -39 -34 l-40 0 -6 48 c-17 143 -40 265 -61 329 -13 41 -24 79 -24 86 1 21 38 -35 80 -119z m-1425 -280 c226 -14 414 -30 419 -34 5 -5 0 -51 -10 -105 l-18 -98 -64 7 c-36 3 -66 7 -68 9 -2 2 2 17 8 34 24 63 -37 119 -83 77 -18 -16 -20 -26 -15 -67 7 -46 6 -47 -16 -43 -13 3 -105 10 -205 17 -167 11 -186 11 -228 -5 -50 -20 -87 -61 -109 -122 l-13 -39 -94 3 c-143 5 -132 -7 -127 141 5 139 23 194 74 228 27 18 86 31 119 26 11 -1 205 -14 430 -29z m1155 -80 c200 -14 367 -28 370 -30 3 -3 5 -49 5 -102 l0 -97 -60 3 c-33 2 -62 6 -64 8 -2 2 3 12 12 22 50 55 -20 135 -75 85 -20 -18 -24 -63 -6 -81 6 -6 9 -15 5 -19 -7 -6 -680 33 -744 44 -27 4 -33 10 -33 30 0 22 22 123 36 162 3 11 23 12 97 7 50 -3 256 -17 457 -32z m-2340 -24 c11 -11 20 -26 20 -32 0 -31 -24 -94 -52 -140 -40 -65 -41 -129 -3 -248 27 -83 29 -129 9 -196 -4 -16 0 -23 15 -27 24 -6 27 -30 10 -107 -11 -52 -21 -59 -52 -36 -29 23 -40 80 -26 136 10 40 10 54 -1 77 -8 15 -14 59 -15 97 -2 62 -5 72 -29 93 -15 13 -36 23 -47 23 -16 0 -19 7 -19 43 0 24 -5 69 -10 100 -8 40 -8 68 0 97 26 98 149 171 200 120z m3060 -25 c52 -4 113 -11 135 -17 72 -18 115 -79 115 -165 0 -17 -3 -34 -7 -36 -8 -5 -400 21 -419 27 -12 5 -28 182 -18 198 3 5 27 7 53 4 25 -3 89 -8 141 -11z m-1184 -160 c434 -30 953 -66 1154 -79 431 -30 436 -31 477 -59 50 -34 63 -79 63 -220 0 -67 -4 -128 -9 -136 -8 -12 -77 -9 -468 18 -446 31 -1676 110 -2038 131 -99 6 -195 13 -214 16 l-34 5 7 127 c8 130 24 192 59 221 35 28 91 41 153 36 34 -3 417 -30 850 -60z m-2102 -151 c22 -8 20 -24 -3 -24 -10 0 -31 -12 -47 -27 -16 -16 -46 -32 -67 -38 -55 -14 -41 -30 27 -30 51 0 61 3 80 28 28 34 59 34 86 0 30 -38 20 -78 -29 -124 -65 -63 -177 -73 -264 -26 -60 33 -62 88 -6 151 50 58 176 108 223 90z m844 -140 c30 -39 55 -57 98 -75 l57 -24 -7 -200 c-3 -110 -15 -483 -26 -830 -22 -707 -28 -815 -41 -815 -16 0 -157 197 -188 264 -48 99 -53 139 -38 326 l12 165 88 3 c82 3 88 4 97 26 18 49 33 232 26 334 -7 112 -32 262 -46 276 -5 5 -31 3 -60 -4 -29 -7 -55 -9 -60 -4 -4 5 0 137 11 294 10 157 18 293 19 303 0 27 13 18 58 -39z m768 -109 c1500 -97 2074 -135 2123 -141 l54 -6 -7 -181 c-4 -100 -13 -328 -21 -507 -8 -179 -19 -469 -26 -645 -8 -246 -15 -327 -26 -349 -9 -18 -13 -40 -8 -60 16 -81 16 -92 -7 -135 -13 -25 -34 -53 -48 -62 -27 -19 20 -20 -550 11 -191 10 -478 24 -1530 76 -410 20 -530 28 -547 40 -50 32 -51 40 -42 309 30 818 59 1652 59 1668 0 10 8 17 18 17 11 0 262 -16 558 -35z m-1502 -17 c22 -82 -206 -172 -304 -121 -39 20 -66 62 -57 86 5 14 11 14 59 1 29 -7 69 -14 89 -14 47 0 128 25 159 50 33 26 46 25 54 -2z m-6 -161 c9 -75 -133 -130 -248 -97 -47 14 -67 31 -75 62 l-7 26 99 -1 c79 -1 108 3 148 20 63 27 79 25 83 -10z m242 -134 c38 -45 130 -214 130 -241 0 -12 17 -17 92 -27 28 -4 49 -12 52 -21 3 -9 6 -60 6 -115 0 -82 -3 -101 -16 -106 -9 -3 -53 -1 -97 4 -76 9 -85 13 -123 49 -22 21 -64 62 -93 89 -29 28 -66 69 -82 92 -40 58 -99 182 -93 196 3 7 31 27 64 46 33 19 69 45 81 57 13 13 26 24 30 24 4 0 26 -21 49 -47z m3686 -702 c22 -10 52 -33 66 -51 14 -18 47 -44 74 -59 27 -14 55 -38 64 -53 14 -26 13 -31 -10 -75 -22 -41 -25 -61 -25 -143 -1 -78 -5 -105 -24 -148 l-24 -54 -71 7 c-39 4 -73 9 -76 12 -2 2 1 17 7 34 7 17 9 52 6 80 -4 36 0 64 16 109 12 33 19 64 16 70 -3 5 -28 22 -55 37 l-50 28 0 106 c0 58 3 109 7 112 11 11 36 8 79 -12z m-46 -269 c22 -18 23 -19 6 -83 -9 -39 -14 -83 -10 -110 7 -60 -19 -110 -63 -121 -22 -6 -38 -19 -49 -41 -23 -43 -97 -128 -105 -119 -8 9 6 347 15 361 4 6 19 11 33 11 47 0 91 29 113 76 24 50 29 51 60 26z m170 -360 c26 -13 35 -23 35 -42 0 -19 -5 -24 -20 -22 -11 1 -36 5 -55 8 -42 6 -74 -10 -50 -26 8 -5 27 -10 41 -10 48 0 54 -20 54 -180 0 -160 -2 -167 -59 -198 -40 -20 -229 -21 -273 0 -37 18 -62 85 -45 122 16 35 54 58 107 64 36 4 45 2 45 -11 0 -9 -8 -20 -17 -26 -17 -9 -16 -11 5 -31 12 -11 22 -25 22 -30 0 -22 19 -8 29 22 11 30 12 30 30 14 23 -21 35 -7 22 26 -11 28 -70 83 -101 93 -12 4 -28 1 -37 -6 -14 -12 -57 -30 -106 -46 -24 -7 -47 14 -47 44 0 36 134 173 152 155 6 -6 26 -12 43 -12 l30 1 -27 22 c-42 34 -34 67 17 80 52 12 171 6 205 -11z m-2700 -402 c33 -21 -48 -105 -126 -130 -20 -7 -38 -10 -41 -7 -5 6 22 97 39 130 7 13 21 17 61 17 29 0 59 -4 67 -10z m370 -11 c135 -6 246 -12 247 -13 1 -1 -18 -64 -43 -141 -78 -242 -89 -373 -32 -391 30 -9 42 9 18 31 -38 35 -28 112 48 351 l47 150 80 -3 c44 -2 130 -6 191 -9 l111 -6 5 -73 c6 -84 27 -128 78 -162 40 -28 139 -31 216 -8 27 8 56 15 64 14 8 0 34 -31 58 -68 46 -75 48 -81 30 -81 -7 0 -121 -70 -253 -156 -237 -153 -241 -155 -288 -151 -32 3 -61 14 -90 34 -43 31 -219 123 -236 123 -4 0 -32 -31 -61 -70 -81 -105 -129 -121 -221 -71 -152 84 -337 174 -402 197 -97 35 -103 44 -31 44 70 0 194 -29 253 -59 45 -24 74 -27 69 -8 -5 18 -120 72 -181 86 -81 18 -198 24 -238 13 -20 -5 -68 -7 -107 -4 -64 4 -72 7 -72 25 0 38 42 84 97 107 50 21 54 25 68 74 15 52 16 53 72 70 78 25 128 60 165 117 37 57 1 53 338 38z m982 -60 c22 -26 60 -128 54 -145 -7 -18 -98 -45 -171 -50 -106 -9 -155 44 -155 166 l0 61 128 -7 c108 -5 129 -9 144 -25z m133 12 l41 -1 39 -82 c22 -45 62 -111 88 -147 94 -127 119 -186 64 -151 -65 42 -93 51 -134 45 l-42 -6 -42 62 c-29 43 -46 83 -56 127 -7 36 -22 84 -32 108 -21 47 -19 55 13 49 12 -2 39 -4 61 -4z m-1675 -447 c78 -25 80 -26 80 -57 0 -52 -44 -130 -115 -206 -37 -39 -73 -71 -79 -71 -7 0 -23 11 -36 25 -13 14 -52 34 -88 45 -35 11 -68 22 -73 25 -8 5 115 195 159 248 21 24 59 21 152 -9z m2045 -114 c29 -45 55 -137 55 -190 0 -22 -10 -50 -27 -75 -25 -36 -28 -49 -28 -130 0 -78 -4 -98 -29 -148 -17 -36 -41 -66 -64 -82 -51 -35 -59 -31 -23 10 57 65 74 111 81 221 5 80 11 108 29 138 22 34 23 46 18 117 -6 79 -22 124 -51 148 -20 17 -20 31 -1 31 8 0 26 -18 40 -40z m-623 -64 c38 -48 70 -52 153 -21 78 30 70 34 111 -67 21 -52 25 -74 17 -86 -7 -11 -53 -25 -149 -44 -235 -46 -246 -43 -313 83 -29 53 -30 57 -13 71 27 24 146 98 157 98 6 0 22 -15 37 -34z m-2310 -275 c64 -79 114 -112 229 -151 44 -16 99 -41 122 -56 51 -34 132 -62 207 -70 50 -6 93 1 143 21 12 5 17 2 17 -9 0 -28 -42 -40 -150 -40 -135 0 -198 18 -260 78 -36 34 -57 45 -105 56 -150 31 -275 131 -275 220 0 11 4 20 8 20 4 0 33 -31 64 -69z"
       id="path4"
       style="fill:#bf4011;stroke:#aa0000;fill-opacity:1" />
    <path
       d="M2955 3348 c-15 -11 -36 -41 -46 -65 -37 -86 -18 -109 40 -48 37 40 62 43 109 15 18 -11 37 -20 42 -20 31 0 -18 111 -56 128 -36 17 -58 15 -89 -10z"
       id="path6"
       style="fill:#bf4011;stroke:#aa0000;fill-opacity:1" />
    <path
       d="M2965 3031 c-83 -35 -159 -184 -190 -376 -37 -223 9 -461 99 -516 114 -69 229 48 284 287 39 169 37 333 -5 459 -39 119 -113 176 -188 146z m75 -36 c61 -31 109 -182 110 -342 0 -80 -11 -98 -34 -54 -33 62 -100 88 -152 58 -53 -30 -97 -105 -114 -195 -23 -113 -3 -219 53 -279 11 -13 15 -23 9 -23 -14 0 -50 37 -68 72 -62 118 -58 425 8 592 28 73 84 152 121 170 39 19 32 19 67 1z"
       id="path8"
       style="fill:#bf4011;stroke:#aa0000;fill-opacity:1" />
    <path
       d="M2480 3002 c-101 -53 -180 -270 -180 -491 1 -256 97 -410 217 -346 18 10 36 16 39 13 3 -3 -4 -23 -15 -44 -24 -44 -27 -74 -9 -92 25 -25 196 -3 206 27 4 11 -4 13 -39 7 -136 -20 -139 -20 -139 0 1 10 7 30 15 44 18 31 19 67 3 72 -8 3 -3 17 15 39 43 57 65 117 86 243 24 137 26 211 7 317 -22 122 -64 197 -123 220 -34 13 -43 12 -83 -9z m103 -50 c45 -47 68 -124 75 -242 l5 -104 -40 42 c-33 35 -46 42 -78 42 -55 0 -98 -37 -137 -118 -28 -58 -33 -81 -38 -172 l-5 -105 -15 55 c-22 82 -17 274 9 375 55 209 150 305 224 227z"
       id="path10"
       style="fill:#bf4011;stroke:#aa0000;fill-opacity:1" />
    <path
       d="M2021 2156 c-33 -34 -61 -67 -61 -74 0 -16 6 -15 34 3 22 15 24 14 50 -25 59 -90 201 -165 371 -197 116 -22 121 -25 128 -71 4 -22 18 -50 33 -65 44 -45 174 -59 236 -26 27 14 58 69 58 101 0 15 4 29 9 32 5 4 47 13 93 21 171 30 327 93 419 169 l54 45 32 -20 c41 -26 58 -6 21 25 -14 12 -28 29 -31 39 -4 9 -14 17 -24 17 -9 0 -34 12 -55 27 -27 18 -42 23 -49 16 -8 -8 0 -19 25 -39 20 -16 36 -36 36 -46 0 -32 -134 -115 -255 -156 -131 -44 -208 -54 -440 -52 -273 1 -362 17 -506 91 -54 27 -124 92 -139 130 -12 28 -11 32 19 63 35 36 37 42 17 49 -8 3 -39 -21 -75 -57z"
       id="path12"
       style="fill:#bf4011;stroke:#aa0000;fill-opacity:1" />
  </g>
</svg>
